<?xml version="1.0" standalone="no"?>
<!DOCTYPE svg PUBLIC "-//W3C//DTD SVG 20010904//EN"
 "http://www.w3.org/TR/2001/REC-SVG-20010904/DTD/svg10.dtd">
<svg version="1.0" xmlns="http://www.w3.org/2000/svg"
 width="600.000000pt" height="300.000000pt" viewBox="0 0 600.000000 300.000000"
 preserveAspectRatio="xMidYMid meet">
<metadata>
Created by potrace 1.14, written by Peter Selinger 2001-2017
</metadata>
<g transform="translate(0.000000,300.000000) scale(0.100000,-0.100000)"
fill="#f8f8f8" stroke="none">
<path d="M603 2324 c-113 -56 -216 -273 -262 -554 -64 -389 -12 -631 145 -678
145 -43 272 32 338 201 14 34 18 37 55 37 l41 0 0 -52 c1 -87 46 -162 113
-187 69 -26 160 0 210 59 15 18 29 31 30 29 2 -2 11 -17 21 -32 23 -37 73 -67
114 -67 37 0 94 27 140 65 l30 25 52 -35 c105 -71 219 -74 348 -9 42 22 80 41
85 42 4 2 7 -6 7 -18 0 -30 44 -70 77 -70 46 0 71 25 88 88 43 157 108 286
171 341 36 33 43 35 68 25 21 -8 21 -72 0 -102 -9 -13 -40 -37 -70 -53 -58
-33 -74 -53 -74 -91 0 -85 69 -176 150 -198 58 -16 146 -8 197 18 69 36 190
167 235 256 l21 40 24 -29 c32 -40 63 -100 63 -124 0 -17 -5 -18 -39 -14 -77
10 -131 -23 -131 -82 0 -88 128 -136 225 -84 22 12 65 25 96 29 75 10 125 35
182 92 l47 47 19 -37 c66 -129 262 -162 391 -67 l34 25 30 -29 c17 -17 44 -35
59 -40 69 -26 161 0 210 59 15 18 29 31 30 29 2 -2 11 -17 21 -32 23 -38 74
-67 116 -67 35 0 124 44 149 74 11 14 16 12 39 -16 61 -72 169 -77 244 -11 15
13 16 13 11 -6 -3 -12 -33 -43 -67 -70 -100 -80 -220 -211 -252 -276 -24 -49
-29 -73 -29 -132 0 -62 3 -75 25 -98 71 -77 184 -72 265 12 66 68 139 245 180
438 l17 80 107 71 106 71 27 -37 c16 -24 48 -48 85 -66 52 -26 68 -29 153 -29
82 0 103 4 154 28 75 35 152 93 177 134 15 23 19 46 17 80 -3 43 -6 48 -28 51
-19 2 -37 -10 -73 -47 -71 -73 -157 -115 -234 -116 -47 0 -68 5 -89 20 -15 12
-26 25 -25 30 1 6 23 17 49 26 159 54 223 124 224 243 1 115 -71 182 -187 173
-146 -11 -250 -121 -277 -293 l-12 -76 -70 -53 c-39 -29 -72 -52 -74 -51 -1 2
11 89 28 194 16 104 27 198 24 207 -9 22 -47 36 -82 29 -23 -5 -32 -1 -45 20
-47 71 -230 -6 -320 -134 -38 -55 -77 -160 -77 -209 0 -18 -13 -40 -42 -68
-49 -46 -66 -54 -90 -41 -24 12 -23 35 9 230 26 160 26 169 10 185 -12 13 -31
17 -62 16 -36 -1 -46 3 -60 23 -19 29 -57 31 -131 9 -133 -41 -242 -183 -262
-343 -6 -47 -12 -59 -43 -84 -48 -39 -106 -52 -156 -35 -60 19 -84 78 -91 223
l-5 114 114 0 c89 0 122 4 149 18 44 22 67 65 51 98 -10 23 -16 24 -97 24
l-86 0 50 55 c79 86 121 191 122 300 0 132 -58 199 -156 180 -48 -9 -126 -82
-169 -159 -40 -72 -89 -214 -106 -308 l-12 -68 -53 0 c-61 0 -84 -21 -84 -76
0 -42 27 -64 78 -64 l42 0 0 -91 0 -91 -39 -44 c-40 -46 -108 -104 -121 -104
-4 0 -11 21 -15 46 -4 32 -22 68 -61 122 -93 132 -92 129 -61 213 34 90 27
103 -50 97 -28 -3 -59 -11 -68 -18 -9 -7 -45 -72 -79 -144 -115 -241 -224
-355 -311 -326 -33 11 -65 43 -65 65 0 5 19 21 41 35 77 47 118 124 119 220 0
65 -23 110 -72 140 -45 27 -94 25 -156 -6 -65 -32 -118 -92 -171 -192 l-40
-77 -1 57 0 57 88 106 c161 193 230 333 239 486 5 72 2 93 -15 132 -36 81
-112 108 -191 68 -145 -75 -254 -390 -283 -821 l-11 -165 -31 -28 c-54 -48
-126 -80 -182 -80 -92 0 -130 48 -128 164 1 106 57 196 117 187 20 -3 22 -9
22 -72 0 -67 1 -69 29 -79 22 -7 33 -5 55 10 37 28 51 60 51 118 0 59 -25 106
-72 136 -27 16 -45 19 -93 16 -77 -6 -131 -33 -188 -97 -58 -64 -88 -142 -93
-239 -3 -65 -7 -78 -31 -104 -34 -36 -62 -48 -85 -35 -24 12 -23 35 9 230 26
160 26 169 10 185 -12 13 -31 17 -62 16 -36 -1 -46 3 -60 23 -43 65 -229 -9
-308 -123 -55 -78 -59 -82 -114 -89 -48 -6 -53 -5 -53 13 0 80 -86 196 -154
209 -20 3 -38 9 -41 13 -2 4 12 30 32 57 116 160 166 392 109 502 -34 65 -114
90 -183 56z m67 -133 c15 -29 12 -114 -6 -185 -16 -64 -72 -191 -137 -311
l-37 -70 6 65 c3 36 17 124 30 196 44 245 106 376 144 305z m1740 0 c15 -29
12 -120 -6 -182 -32 -110 -163 -329 -164 -274 -1 72 66 349 101 417 31 61 51
72 69 39z m1286 -96 c14 -56 -1 -142 -38 -217 -35 -69 -108 -157 -108 -129 0
29 41 210 60 265 35 102 72 137 86 81z m-2411 -527 c-3 -13 -16 -78 -30 -146
-26 -128 -34 -153 -68 -189 -26 -29 -58 -29 -83 -2 -15 17 -19 35 -17 83 2
107 59 218 132 256 51 27 73 26 66 -2z m2900 0 c-3 -13 -16 -78 -30 -146 -26
-128 -34 -153 -68 -189 -26 -29 -58 -29 -83 -2 -15 17 -19 35 -17 83 2 107 59
218 132 256 51 27 73 26 66 -2z m625 0 c-1 -39 -48 -265 -61 -290 -34 -67 -80
-85 -115 -47 -15 17 -19 35 -17 83 2 107 59 218 132 256 48 25 61 25 61 -2z
m-4200 -43 c0 -65 17 -110 54 -144 31 -29 32 -33 6 -87 -14 -28 -33 -48 -56
-59 -50 -24 -86 -7 -115 52 -43 90 -8 241 65 277 17 9 34 16 39 16 4 0 7 -25
7 -55z m4771 45 c27 -15 26 -79 -2 -114 -20 -26 -71 -56 -116 -70 -21 -7 -23
-4 -23 31 1 49 30 114 65 141 31 24 47 27 76 12z m-686 -724 c-37 -129 -92
-226 -128 -226 -40 0 -48 60 -17 129 18 38 158 196 167 188 2 -2 -8 -43 -22
-91z"/>
</g>
</svg>
